<svg width="37" height="40" viewBox="0 0 37 40" fill="none" xmlns="http://www.w3.org/2000/svg">
<path d="M0 0H37V40H0V0ZM35.3182 1.81816H1.6818V38.1818H35.3182V1.81816ZM1.43628 34.5346L0.247221 33.249L12.0754 20.46L21.7122 30.86L28.1384 23.9127L36.7561 33.2472L35.5654 34.5308L28.1368 26.4854L21.7122 33.4308L12.0754 23.0308L1.43628 34.5346ZM21.7123 8.67273C23.9508 8.67273 25.7655 10.6345 25.7655 13.0546C25.7655 15.4746 23.9508 17.4364 21.7123 17.4364C19.4738 17.4364 17.6591 15.4746 17.6591 13.0546C17.662 10.6358 19.4749 8.67586 21.712 8.67273H21.7123ZM21.7123 15.6182C23.0219 15.6182 24.0837 14.4704 24.0837 13.0545C24.0837 11.6386 23.0219 10.4909 21.7122 10.4909C20.4025 10.4909 19.3408 11.6387 19.3408 13.0546C19.3428 14.4696 20.4033 15.6161 21.712 15.6182H21.7122H21.7123Z" fill="#727272"/>
</svg>
