<svg width="24" height="25" viewBox="0 0 24 25" fill="none" xmlns="http://www.w3.org/2000/svg">
<path fill-rule="evenodd" clip-rule="evenodd" d="M9.86648 3.59668L9.05312 5.5008L7.29605 4.79554L4.24433 7.84726L4.88675 9.47875L3.27881 10.1782V14.4939L5.11358 15.2777L4.3704 17.1292L7.42212 20.1809L9.20074 19.4806L9.86648 21.0391H14.1823L14.8513 19.501L16.578 20.1809L19.6297 17.1292L18.8865 15.2777L20.7213 14.4939V10.1782L19.1134 9.47876L19.7558 7.84727L16.7041 4.79555L15.0011 5.47912L14.1823 3.59668H9.86648ZM16.8118 10.3953L16.6324 10.0572L17.4145 8.33442L16.2236 7.14351L14.5163 7.82881L14.0247 7.60219L13.6022 7.41734L12.8712 5.59668H11.187L10.4567 7.41129L9.99136 7.60219L9.48386 7.82879L7.77652 7.14349L6.58561 8.3344L7.26399 10.0572L7.10288 10.421L6.97671 10.7507L5.27881 11.4892V13.1734L6.97067 13.8961L7.18286 14.4187L7.39771 14.9695L6.71835 16.6487L7.90926 17.8396L9.7433 17.0704L10.1378 17.2278L10.4643 17.3472L11.187 19.0391H12.8712L13.6097 17.3412L13.9836 17.1999L14.3039 17.0612L16.0909 17.8396L17.2818 16.6487L16.6324 14.9954L16.8821 14.3194L17.0295 13.8961L18.7213 13.1734V11.4892L17.0234 10.7507L16.8118 10.3953Z" fill="#212121"/>
<path fill-rule="evenodd" clip-rule="evenodd" d="M12 13.3184C12.5523 13.3184 13 12.8706 13 12.3184C13 11.7661 12.5523 11.3184 12 11.3184C11.4477 11.3184 11 11.7661 11 12.3184C11 12.8706 11.4477 13.3184 12 13.3184ZM12 15.3184C13.6569 15.3184 15 13.9752 15 12.3184C15 10.6615 13.6569 9.31836 12 9.31836C10.3431 9.31836 9 10.6615 9 12.3184C9 13.9752 10.3431 15.3184 12 15.3184Z" fill="#212121"/>
</svg>
