<svg xmlns="http://www.w3.org/2000/svg" width="136" height="31" viewBox="0 0 136 31">
  <path d="M0.53,30V0.91H19.79V5.98H6.68V12.91H18.51V17.98H6.68V30H0.53ZM31.47,30.43C29.26,30.43 27.35,29.96 25.75,29.02C24.14,28.07 22.91,26.76 22.04,25.07C21.17,23.38 20.73,21.41 20.73,19.18C20.73,16.92 21.17,14.95 22.04,13.27C22.91,11.57 24.14,10.26 25.75,9.32C27.35,8.37 29.26,7.9 31.47,7.9C33.68,7.9 35.58,8.37 37.18,9.32C38.79,10.26 40.03,11.57 40.9,13.27C41.77,14.95 42.21,16.92 42.21,19.18C42.21,21.41 41.77,23.38 40.9,25.07C40.03,26.76 38.79,28.07 37.18,29.02C35.58,29.96 33.68,30.43 31.47,30.43ZM31.5,25.74C32.5,25.74 33.34,25.45 34.01,24.89C34.68,24.31 35.19,23.52 35.53,22.53C35.88,21.53 36.06,20.4 36.06,19.13C36.06,17.86 35.88,16.73 35.53,15.74C35.19,14.74 34.68,13.96 34.01,13.38C33.34,12.8 32.5,12.51 31.5,12.51C30.48,12.51 29.63,12.8 28.94,13.38C28.26,13.96 27.74,14.74 27.39,15.74C27.05,16.73 26.88,17.86 26.88,19.13C26.88,20.4 27.05,21.53 27.39,22.53C27.74,23.52 28.26,24.31 28.94,24.89C29.63,25.45 30.48,25.74 31.5,25.74ZM45.54,30V8.18H51.41V11.99H51.64C52.03,10.63 52.7,9.61 53.64,8.92C54.58,8.22 55.66,7.87 56.88,7.87C57.18,7.87 57.51,7.89 57.86,7.93C58.21,7.96 58.52,8.02 58.78,8.08V13.45C58.5,13.37 58.1,13.29 57.6,13.22C57.1,13.16 56.64,13.13 56.22,13.13C55.33,13.13 54.54,13.32 53.84,13.71C53.15,14.09 52.6,14.62 52.19,15.3C51.79,15.98 51.59,16.77 51.59,17.66V30H45.54ZM74.01,8.18V12.73H60.87V8.18H74.01ZM63.85,2.95H69.9V23.3C69.9,23.85 69.99,24.29 70.16,24.6C70.33,24.91 70.57,25.12 70.87,25.24C71.18,25.36 71.54,25.43 71.95,25.43C72.23,25.43 72.52,25.4 72.8,25.36C73.09,25.3 73.3,25.26 73.46,25.23L74.41,29.73C74.1,29.82 73.68,29.93 73.13,30.06C72.58,30.19 71.91,30.27 71.13,30.3C69.67,30.36 68.39,30.16 67.29,29.72C66.2,29.27 65.35,28.58 64.75,27.64C64.14,26.7 63.84,25.52 63.85,24.09V2.95ZM77.35,30V8.18H83.22V11.99H83.44C83.84,10.63 84.51,9.61 85.45,8.92C86.38,8.22 87.46,7.87 88.69,7.87C88.99,7.87 89.32,7.89 89.67,7.93C90.02,7.96 90.32,8.02 90.59,8.08V13.45C90.31,13.37 89.91,13.29 89.41,13.22C88.91,13.16 88.45,13.13 88.03,13.13C87.14,13.13 86.35,13.32 85.65,13.71C84.95,14.09 84.41,14.62 84,15.3C83.6,15.98 83.4,16.77 83.4,17.66V30H77.35ZM98.71,30.41C97.32,30.41 96.08,30.17 94.99,29.69C93.9,29.2 93.04,28.47 92.41,27.51C91.78,26.55 91.47,25.35 91.47,23.91C91.47,22.69 91.69,21.68 92.14,20.85C92.58,20.03 93.19,19.37 93.96,18.86C94.72,18.36 95.59,17.98 96.57,17.73C97.55,17.47 98.59,17.29 99.67,17.19C100.93,17.05 101.96,16.93 102.73,16.82C103.51,16.7 104.07,16.52 104.43,16.28C104.78,16.04 104.95,15.69 104.95,15.23V15.14C104.95,14.24 104.67,13.55 104.1,13.05C103.54,12.56 102.74,12.32 101.71,12.32C100.62,12.32 99.76,12.56 99.11,13.04C98.47,13.51 98.04,14.11 97.83,14.83L92.24,14.38C92.52,13.05 93.08,11.9 93.91,10.94C94.75,9.96 95.82,9.21 97.14,8.69C98.46,8.16 100,7.9 101.74,7.9C102.95,7.9 104.11,8.04 105.22,8.32C106.34,8.61 107.33,9.05 108.19,9.64C109.06,10.24 109.75,11.01 110.25,11.95C110.75,12.87 111,13.99 111,15.28V30H105.26V26.97H105.09C104.74,27.66 104.27,28.26 103.69,28.78C103.1,29.29 102.39,29.69 101.57,29.99C100.75,30.27 99.79,30.41 98.71,30.41ZM100.45,26.24C101.34,26.24 102.12,26.06 102.81,25.71C103.49,25.35 104.02,24.87 104.41,24.26C104.8,23.66 104.99,22.97 104.99,22.2V19.89C104.8,20.01 104.54,20.12 104.21,20.23C103.89,20.32 103.53,20.41 103.12,20.5C102.71,20.57 102.3,20.64 101.9,20.71C101.49,20.77 101.12,20.82 100.79,20.87C100.08,20.97 99.46,21.14 98.93,21.36C98.4,21.59 97.99,21.9 97.69,22.29C97.4,22.67 97.25,23.14 97.25,23.71C97.25,24.53 97.55,25.16 98.15,25.6C98.75,26.02 99.52,26.24 100.45,26.24ZM121.15,17.39V30H115.1V8.18H120.86V12.03H121.12C121.6,10.76 122.41,9.76 123.55,9.02C124.68,8.27 126.06,7.9 127.68,7.9C129.2,7.9 130.52,8.23 131.64,8.89C132.77,9.55 133.65,10.5 134.27,11.73C134.9,12.95 135.21,14.41 135.21,16.11V30H129.16V17.19C129.17,15.85 128.83,14.81 128.14,14.06C127.44,13.3 126.49,12.93 125.28,12.93C124.47,12.93 123.75,13.1 123.12,13.45C122.51,13.8 122.02,14.31 121.67,14.99C121.33,15.65 121.16,16.45 121.15,17.39Z"
      fill="#102E6A"
      fill-opacity="0.933333"/>
</svg>
